<?xml version="1.0" encoding="utf-8"?>
<!-- Generator: Adobe Illustrator 25.4.1, SVG Export Plug-In . SVG Version: 6.00 Build 0)  -->
<svg version="1.1" baseProfile="tiny" id="Layer_1" xmlns="http://www.w3.org/2000/svg" xmlns:xlink="http://www.w3.org/1999/xlink"
	 x="0px" y="0px" viewBox="0 0 360 215.96" overflow="visible" xml:space="preserve">
<rect x="0.11" y="0.13" fill="#D31245" width="360" height="207.98"/>
<g>
	<path fill="#FFFFFF" d="M65.47,153.01h5.41l1.05,7.95c0.18,1.31,0.25,2.66,0.28,4h0.06c0.46-1.34,0.97-2.69,1.55-4l3.57-7.95h5.41
		l-2.52,15.94h-3.26l1.29-8.17l0.67-4.21h-0.02c-0.58,1.38-1.12,2.75-1.75,4.12l-3.79,8.26H69.8l-1.17-8.26
		c-0.2-1.37-0.31-2.74-0.44-4.12h-0.02l-0.67,4.21l-1.29,8.17h-3.26L65.47,153.01z"/>
	<path fill="#FFFFFF" d="M86.26,153.01H97.3l-0.48,3.03h-7.33l-0.53,3.35h6.54l-0.46,2.86h-6.54l-0.58,3.66h7.33l-0.48,3.03H83.75
		L86.26,153.01z"/>
	<path fill="#FFFFFF" d="M100.13,153.01h5.41l1.05,7.95c0.18,1.31,0.25,2.66,0.28,4h0.06c0.46-1.34,0.97-2.69,1.55-4l3.57-7.95h5.41
		l-2.52,15.94h-3.26l1.29-8.17l0.67-4.21h-0.02c-0.58,1.38-1.12,2.75-1.75,4.12l-3.79,8.26h-3.63l-1.17-8.26
		c-0.2-1.37-0.31-2.74-0.44-4.12h-0.02l-0.67,4.21l-1.29,8.17h-3.26L100.13,153.01z"/>
	<path fill="#FFFFFF" d="M120.92,153.01h6.51c3.39,0,4.75,1.09,4.75,3.46c0,1.98-1.17,3.51-3.1,4.02c1.86,0.25,2.74,1.35,2.74,3.08
		c0,3.55-2.49,5.37-6.35,5.37h-7.06L120.92,153.01z M125.64,166c1.6,0,2.42-0.91,2.42-2.42c0-1.09-0.64-1.49-1.8-1.49h-3.06
		l-0.62,3.91H125.64z M125.87,159.53c1.63,0,2.41-0.81,2.41-2.28c0-0.84-0.41-1.29-1.74-1.29h-2.38l-0.57,3.57H125.87z"/>
	<path fill="#FFFFFF" d="M136.05,153.01h11.04l-0.48,3.03h-7.33l-0.53,3.35h6.54l-0.46,2.86h-6.54l-0.58,3.66h7.33l-0.48,3.03
		h-11.04L136.05,153.01z"/>
	<path fill="#FFFFFF" d="M149.92,153.01h6.81c3.67,0,5.07,1.52,5.07,4.05c0,2.68-1.36,4.52-3.68,5.34l2.44,6.55h-4.12l-1.98-6.08
		h-2.4l-0.97,6.08h-3.7L149.92,153.01z M155.42,160.1c1.89,0,2.61-1.04,2.62-2.51c0-1.14-0.51-1.64-1.94-1.64h-2.94l-0.65,4.15
		H155.42z"/>
</g>
<g>
	<polygon fill="#FDB913" points="119.91,215.71 -0.1,215.64 -0.17,207.02 119.83,207.09 	"/>
	<polygon fill="#0081C6" points="239.91,215.78 119.91,215.71 119.83,207.09 239.84,207.16 	"/>
	<polygon fill="#B2BB1E" points="359.91,215.86 239.91,215.78 239.84,207.16 359.84,207.23 	"/>
</g>
<g>
	<path fill="#FFFFFF" d="M287.95,84.73c5.25-3.04,8.63-7.64,9.62-13.25c1.53-8.64-1.63-18.95-25.35-18.95h-31.22l-12.58,71.37h36.54
		c18.91,0,29.75-7.08,32.21-21.05C298.7,94.25,295.56,88.18,287.95,84.73 M256.21,79.69l2.17-12.29h12.02c7.01,0,7.3,3.47,6.76,6.49
		c-0.47,2.69-1.92,5.79-8.92,5.79H256.21 M264.24,108.64H251.1l2.47-13.99h13.04c9.8,0,10.47,3.69,9.84,7.3
		C275.71,106.08,273.42,108.64,264.24,108.64"/>
	<polygon fill="#FFFFFF" points="137.3,123.91 157.18,123.91 162.16,95.64 184.33,95.64 197.24,80.12 197.24,80.08 164.91,80.08 
		167.06,67.9 201.1,67.9 203.81,52.53 149.88,52.53 	"/>
	<path fill="#FFFFFF" d="M112.9,70.17c11.29,0,20.06,4.92,22.82,11.89l4.42-24.66c-7.11-3.79-15.85-5.73-24.53-5.73
		c-24.24,0-48.32,14.92-52.07,36.2c-2.22,12.55,1.9,21.03,8.28,26.67l-10.98,18.39l22.83-11.49c6.68,2.52,13.38,3.38,17.4,3.38
		c9.62,0,19.01-2.56,28.03-7.18l0.31-0.37l3.75-20.94c-5.24,6.93-15.72,11.81-26.96,11.81c-3.51,0-6.76-0.49-9.68-1.35l-20.11,12.23
		l12.42-15.96c-4.68-3.46-7.13-8.39-6.17-13.9C84.52,78.67,98.05,70.17,112.9,70.17z"/>
	<polygon fill="#FFFFFF" points="212.29,52.53 231.64,52.53 219.06,123.9 199.71,123.9 	"/>
	<g>
		<path fill="#FFFFFF" d="M300.29,123.84h-0.88v-3.46h-1.27v-0.74h3.42v0.74h-1.27V123.84z"/>
		<path fill="#FFFFFF" d="M306.12,123.84h-0.82v-3.52h-0.01l-0.79,3.52h-0.86l-0.77-3.52h-0.01v3.52h-0.82v-4.21h1.28l0.76,3.32
			h0.01l0.75-3.32h1.27V123.84z"/>
	</g>
</g>
</svg>
