<svg xmlns="http://www.w3.org/2000/svg" width="179.424" height="39.514" viewBox="0 0 179.424 39.514">
  <g id="Mobile_brainhouse_Logo_Dark" transform="translate(-678.224 -128.5)">
    <g id="Group_5" data-name="Group 5" transform="translate(696.745 156.466)">
      <text id="intelligence._innovation._impact_" data-name="intelligence. innovation. impact " transform="translate(0 8.548)" fill="#fbfbfb" font-size="12" font-family="League Spartan" font-weight="300"><tspan x="0" y="0">intelligence. innovation. impact</tspan><tspan y="0" font-weight="600"> </tspan></text>
      <circle id="Ellipse_2" data-name="Ellipse 2" cx="1.371" cy="1.371" r="1.371" transform="translate(0)" fill="#f20b1e"/>
      <circle id="Ellipse_5" data-name="Ellipse 5" cx="1.371" cy="1.371" r="1.371" transform="translate(60.06)" fill="#f20b1e"/>
      <circle id="Ellipse_6" data-name="Ellipse 6" cx="1.371" cy="1.371" r="1.371" transform="translate(116.829)" fill="#f20b1e"/>
    </g>
    <g id="Group_6" data-name="Group 6" transform="translate(678.224 128.5)">
      <g id="Group_2" data-name="Group 2" transform="translate(17.424 0.548)">
        <text id="brainhouse" transform="translate(0 24)" fill="#fbfbfb" font-size="34" font-family="League Spartan" font-weight="600"><tspan x="0" y="0">brainhouse</tspan></text>
        <circle id="Ellipse_1" data-name="Ellipse 1" cx="3.29" cy="3.29" r="3.29" transform="translate(50.448)" fill="#f20b1e"/>
      </g>
      <g id="Brainhouse-2" data-name="Brainhouse" transform="translate(0 0)">
        <path id="Path_1" data-name="Path 1" d="M22.379,4.3a3.051,3.051,0,0,1,2.5,1.171,3.448,3.448,0,0,1,.335,2.049l.043,17.953a8.041,8.041,0,0,1-.065,1.548A2.1,2.1,0,0,1,23.6,28.629a5.037,5.037,0,0,1-.947.049h-.989a3.837,3.837,0,0,1-1.748-.174c-1.06-.53-.846-1.48-2.4-1.622a3.44,3.44,0,0,0-1.642.395,5.559,5.559,0,0,1-2.7.1,5.8,5.8,0,0,1-4.14-8.341c.307-.576.918-1.022,1.105-1.6a13.655,13.655,0,0,0,.02-1.981,5.278,5.278,0,0,1,1.73-3.266c1.112-.895.839-.276,1.234-1.67a4.845,4.845,0,0,1,3.814-3.5,4.417,4.417,0,0,0,1.359-.277,9.874,9.874,0,0,0,.731-.879A4.964,4.964,0,0,1,22.379,4.3Z" transform="translate(-8.384 -4.291)" fill="#e10402"/>
        <path id="Path_2" data-name="Path 2" d="M58.457,83.814a.514.514,0,0,1,.6.682,31.339,31.339,0,0,0,2.2,2.271c1.2,1.23,1.069.95,1.072,2.708a6.931,6.931,0,0,1-.086,1.763c1.564-.011,1.905.34,1.9,1.859v.993a.569.569,0,0,1,.423.791c-.184.429-.932.332-1.083-.082a.535.535,0,0,1,.4-.674V93.19a3.314,3.314,0,0,0-.059-.946,1.184,1.184,0,0,0-1.141-.767c-.642,0-.584.108-1.043.568-.154.15-1.5,1.754-1.644,1.22A18.11,18.11,0,0,1,61.3,91.907a2.8,2.8,0,0,0,.424-.4,3.543,3.543,0,0,0-.559,0c-.933.026-1.868-.008-2.8,0,0-.09,0-.18,0-.27a7.344,7.344,0,0,0,1.041.033h1.462a7.892,7.892,0,0,0,1.04-.009c.274-.053.155-1.836.151-2.05A6.235,6.235,0,0,0,62,88.16c-.117-.508-1.12-1.274-1.486-1.634l-1.029-1.009a7.717,7.717,0,0,0-.678-.657c-.142-.11-.343-.1-.5-.193A.45.45,0,0,1,58.457,83.814Z" transform="translate(-52.248 -74.507)" fill="#fbfbfb"/>
        <path id="Path_3" data-name="Path 3" d="M105.743,61.981c.326-.008.151.248.029.39-.379.442-.7.866-1.058,1.314-.571.712-1.226,1.3-.9,2.307a24.581,24.581,0,0,0,1.386,2.466c.129.2.521.588.287.816a.789.789,0,0,1-.158,0,16.987,16.987,0,0,0-1.236-2.295c-.806-1.415-.937-1.723.032-2.971l.842-1.075A7.9,7.9,0,0,1,105.743,61.981Z" transform="translate(-92.327 -55.233)" fill="#fbfbfb"/>
        <path id="Path_4" data-name="Path 4" d="M127.92,148.743c.743-.068,1.007.847.234,1.07C127.411,149.876,127.141,148.89,127.92,148.743Z" transform="translate(-113.525 -131.845)" fill="#fbfbfb"/>
        <path id="Path_5" data-name="Path 5" d="M127.743,76.425a.551.551,0,1,1,.2,1.084C127.214,77.549,126.929,76.721,127.743,76.425Z" transform="translate(-113.348 -67.983)" fill="#fbfbfb"/>
        <path id="Path_6" data-name="Path 6" d="M127.245,171.983a.525.525,0,1,1,.206,1.026C126.666,173.1,126.468,172.162,127.245,171.983Z" transform="translate(-112.909 -152.365)" fill="#fbfbfb"/>
        <path id="Path_7" data-name="Path 7" d="M51.012,172.024c.7,0,.922.867.146,1.026C50.377,173.094,50.2,172.188,51.012,172.024Z" transform="translate(-45.557 -152.407)" fill="#fbfbfb"/>
        <path id="Path_8" data-name="Path 8" d="M127.937,49.2a.5.5,0,1,1,.039,1C127.229,50.175,127.066,49.291,127.937,49.2Z" transform="translate(-113.434 -43.944)" fill="#fbfbfb"/>
        <path id="Path_9" data-name="Path 9" d="M31.782,164.372a.515.515,0,1,1,.079,1.022C31.059,165.3,31.051,164.526,31.782,164.372Z" transform="translate(-28.572 -145.648)" fill="#fbfbfb"/>
        <path id="Path_10" data-name="Path 10" d="M78.467,172.374c.755-.056.967.808.225.983C77.885,173.408,77.774,172.535,78.467,172.374Z" transform="translate(-69.867 -152.714)" fill="#fbfbfb"/>
        <path id="Path_11" data-name="Path 11" d="M51.376,105.309c.721-.086.963.847.2.975C50.816,106.322,50.608,105.544,51.376,105.309Z" transform="translate(-45.921 -93.489)" fill="#fbfbfb"/>
        <path id="Path_12" data-name="Path 12" d="M128.1,99.273c.74.028.779.887.038,1.035A.519.519,0,1,1,128.1,99.273Z" transform="translate(-113.632 -88.164)" fill="#fbfbfb"/>
        <path id="Path_13" data-name="Path 13" d="M110.992,34.018a.491.491,0,1,1,.123.966C110.4,35.047,110.212,34.1,110.992,34.018Z" transform="translate(-98.545 -30.538)" fill="#fbfbfb"/>
        <path id="Path_14" data-name="Path 14" d="M32.017,142.085a.5.5,0,1,1,.145.98C31.432,143.125,31.228,142.27,32.017,142.085Z" transform="translate(-28.808 -125.963)" fill="#fbfbfb"/>
        <path id="Path_15" data-name="Path 15" d="M83.706,82.781a.491.491,0,1,1,.044.974C82.982,83.693,82.914,82.89,83.706,82.781Z" transform="translate(-74.399 -73.598)" fill="#fbfbfb"/>
        <path id="Path_16" data-name="Path 16" d="M128.07,26.951a.5.5,0,1,1,.077.986C127.327,27.851,127.376,27,128.07,26.951Z" transform="translate(-113.605 -24.301)" fill="#fbfbfb"/>
        <path id="Path_17" data-name="Path 17" d="M99.691,56.513a.493.493,0,1,1,.2.959C99.2,57.506,99.007,56.649,99.691,56.513Z" transform="translate(-88.634 -50.396)" fill="#fbfbfb"/>
        <path id="Path_18" data-name="Path 18" d="M51.552,127.594c.78-.039.829.836.146.958C51.058,128.589,50.8,127.74,51.552,127.594Z" transform="translate(-46.098 -113.171)" fill="#fbfbfb"/>
        <path id="Path_19" data-name="Path 19" d="M128.16,127.592c.889-.041.864.785.2.907C127.626,128.549,127.482,127.7,128.16,127.592Z" transform="translate(-113.765 -113.17)" fill="#fbfbfb"/>
        <path id="Path_20" data-name="Path 20" d="M78.189,56.567c.728-.061.924.715.243.959C77.68,57.456,77.525,56.715,78.189,56.567Z" transform="translate(-69.654 -50.45)" fill="#fbfbfb"/>
      </g>
    </g>
  </g>
</svg>
