<svg xmlns="http://www.w3.org/2000/svg" width="326.776" height="73" viewBox="0 0 326.776 73">
  <g id="brainhouse_Logo_Dark" transform="translate(-678.224 -128.5)">
    <g id="Group_5" data-name="Group 5" transform="translate(401 -257.5)">
      <text id="intelligence._innovation._impact_" data-name="intelligence. innovation. impact " transform="translate(311 454)" fill="#fbfbfb" font-size="23" font-family="League Spartan" font-weight="300"><tspan x="0" y="0">intelligence. innovation. impact</tspan><tspan y="0" font-weight="600"> </tspan></text>
      <circle id="Ellipse_2" data-name="Ellipse 2" cx="2.5" cy="2.5" r="2.5" transform="translate(311 437)" fill="#f20b1e"/>
      <circle id="Ellipse_5" data-name="Ellipse 5" cx="2.5" cy="2.5" r="2.5" transform="translate(426 437)" fill="#f20b1e"/>
      <circle id="Ellipse_6" data-name="Ellipse 6" cx="2.5" cy="2.5" r="2.5" transform="translate(535 437)" fill="#f20b1e"/>
    </g>
    <g id="Group_6" data-name="Group 6" transform="translate(399 -257.5)">
      <g id="Group_2" data-name="Group 2">
        <text id="brainhouse" transform="translate(311 430)" fill="#fbfbfb" font-size="62" font-family="League Spartan" font-weight="600"><tspan x="0" y="0">brainhouse</tspan></text>
        <circle id="Ellipse_1" data-name="Ellipse 1" cx="6" cy="6" r="6" transform="translate(403 387)" fill="#f20b1e"/>
      </g>
      <g id="Brainhouse-2" data-name="Brainhouse" transform="translate(270.84 381.709)">
        <path id="Path_1" data-name="Path 1" d="M33.907,4.311a5.564,5.564,0,0,1,4.552,2.136c.759,1.124.614,2.45.612,3.736l.079,32.741a14.664,14.664,0,0,1-.118,2.823,3.835,3.835,0,0,1-2.9,2.927,9.186,9.186,0,0,1-1.728.089l-1.8,0a7,7,0,0,1-3.188-.318c-1.933-.966-1.543-2.7-4.384-2.958-1.329-.121-1.833.354-2.995.72a10.138,10.138,0,0,1-4.92.186,10.585,10.585,0,0,1-7.55-15.211c.561-1.051,1.674-1.864,2.015-2.912.273-.838-.065-2.524.036-3.612A9.626,9.626,0,0,1,14.771,18.7c2.027-1.631,1.53-.5,2.25-3.045a8.836,8.836,0,0,1,6.955-6.375,8.055,8.055,0,0,0,2.477-.5,18.006,18.006,0,0,0,1.333-1.6A9.053,9.053,0,0,1,33.907,4.311Z" transform="translate(0 0)" fill="#e10402"/>
        <path id="Path_2" data-name="Path 2" d="M58.786,83.819a.938.938,0,0,1,1.1,1.244A57.152,57.152,0,0,0,63.9,89.2c2.184,2.243,1.949,1.732,1.955,4.939a12.64,12.64,0,0,1-.157,3.215c2.851-.02,3.474.619,3.474,3.39v1.811A1.039,1.039,0,0,1,69.94,104c-.335.782-1.7.606-1.976-.149a.975.975,0,0,1,.734-1.23v-1.705a6.043,6.043,0,0,0-.108-1.725,2.16,2.16,0,0,0-2.081-1.4c-1.172,0-1.065.2-1.9,1.036-.28.274-2.741,3.2-3,2.225a33.021,33.021,0,0,1,2.351-2.475,5.108,5.108,0,0,0,.773-.729,6.463,6.463,0,0,0-1.02-.006c-1.7.047-3.407-.015-5.109.006.006-.164,0-.329,0-.493a13.392,13.392,0,0,0,1.9.059h2.666a14.392,14.392,0,0,0,1.9-.017c.5-.1.283-3.348.275-3.739a11.372,11.372,0,0,0-.087-1.917c-.213-.926-2.042-2.323-2.711-2.979l-1.877-1.84a14.074,14.074,0,0,0-1.236-1.2c-.26-.2-.626-.174-.909-.353A.821.821,0,0,1,58.786,83.819Z" transform="translate(-39.078 -62.556)" fill="#fbfbfb"/>
        <path id="Path_3" data-name="Path 3" d="M107.636,61.981c.6-.014.275.452.052.711-.691.806-1.274,1.579-1.93,2.4-1.04,1.3-2.235,2.373-1.637,4.206a44.826,44.826,0,0,0,2.527,4.5c.236.373.95,1.073.523,1.488a1.438,1.438,0,0,1-.287,0A30.982,30.982,0,0,0,104.63,71.1c-1.47-2.581-1.709-3.142.058-5.418l1.535-1.961A14.413,14.413,0,0,1,107.636,61.981Z" transform="translate(-74.785 -45.384)" fill="#fbfbfb"/>
        <path id="Path_4" data-name="Path 4" d="M128.306,148.746c1.354-.124,1.837,1.545.427,1.951C127.378,150.813,126.886,149.013,128.306,148.746Z" transform="translate(-93.671 -113.639)" fill="#fbfbfb"/>
        <path id="Path_5" data-name="Path 5" d="M128.148,76.431a1,1,0,1,1,.36,1.977C127.185,78.48,126.665,76.971,128.148,76.431Z" transform="translate(-93.513 -56.743)" fill="#fbfbfb"/>
        <path id="Path_6" data-name="Path 6" d="M127.651,171.987a.957.957,0,1,1,.375,1.872C126.595,174.027,126.234,172.314,127.651,171.987Z" transform="translate(-93.121 -131.92)" fill="#fbfbfb"/>
        <path id="Path_7" data-name="Path 7" d="M51.449,172.024c1.272.008,1.681,1.582.266,1.872C50.291,173.975,49.966,172.322,51.449,172.024Z" transform="translate(-33.118 -131.957)" fill="#fbfbfb"/>
        <path id="Path_8" data-name="Path 8" d="M128.423,49.2a.918.918,0,1,1,.071,1.828C127.131,50.982,126.835,49.369,128.423,49.2Z" transform="translate(-93.589 -35.327)" fill="#fbfbfb"/>
        <path id="Path_9" data-name="Path 9" d="M32.223,164.373a.938.938,0,1,1,.144,1.864C30.905,166.059,30.891,164.655,32.223,164.373Z" transform="translate(-17.986 -125.935)" fill="#fbfbfb"/>
        <path id="Path_10" data-name="Path 10" d="M78.844,172.376c1.377-.1,1.763,1.473.411,1.793C77.782,174.262,77.579,172.669,78.844,172.376Z" transform="translate(-54.775 -132.23)" fill="#fbfbfb"/>
        <path id="Path_11" data-name="Path 11" d="M51.773,105.314c1.316-.157,1.756,1.545.37,1.778C50.753,107.161,50.373,105.743,51.773,105.314Z" transform="translate(-33.442 -79.467)" fill="#fbfbfb"/>
        <path id="Path_12" data-name="Path 12" d="M128.529,99.273c1.349.051,1.42,1.617.07,1.888A.946.946,0,1,1,128.529,99.273Z" transform="translate(-93.765 -74.723)" fill="#fbfbfb"/>
        <path id="Path_13" data-name="Path 13" d="M111.409,34.021a.9.9,0,1,1,.225,1.761C110.326,35.9,109.986,34.164,111.409,34.021Z" transform="translate(-80.324 -23.383)" fill="#fbfbfb"/>
        <path id="Path_14" data-name="Path 14" d="M32.432,142.091a.907.907,0,1,1,.264,1.787C31.366,143.987,30.994,142.428,32.432,142.091Z" transform="translate(-18.195 -108.398)" fill="#fbfbfb"/>
        <path id="Path_15" data-name="Path 15" d="M84.17,82.783a.9.9,0,1,1,.081,1.775C82.85,84.446,82.727,82.983,84.17,82.783Z" transform="translate(-58.813 -61.746)" fill="#fbfbfb"/>
        <path id="Path_16" data-name="Path 16" d="M128.505,26.951a.906.906,0,1,1,.141,1.8C127.151,28.592,127.24,27.04,128.505,26.951Z" transform="translate(-93.741 -17.826)" fill="#fbfbfb"/>
        <path id="Path_17" data-name="Path 17" d="M100.042,56.521a.9.9,0,1,1,.368,1.749C99.139,58.332,98.8,56.771,100.042,56.521Z" transform="translate(-71.495 -41.074)" fill="#fbfbfb"/>
        <path id="Path_18" data-name="Path 18" d="M51.93,127.595c1.422-.071,1.513,1.525.266,1.746C51.029,129.41,50.561,127.861,51.93,127.595Z" transform="translate(-33.599 -97.002)" fill="#fbfbfb"/>
        <path id="Path_19" data-name="Path 19" d="M128.52,127.593c1.622-.076,1.576,1.431.36,1.653C127.547,129.34,127.284,127.8,128.52,127.593Z" transform="translate(-93.884 -97)" fill="#fbfbfb"/>
        <path id="Path_20" data-name="Path 20" d="M78.534,56.569c1.327-.112,1.685,1.3.443,1.749C77.607,58.191,77.324,56.839,78.534,56.569Z" transform="translate(-54.585 -41.123)" fill="#fbfbfb"/>
      </g>
    </g>
  </g>
</svg>
